<svg viewBox="0 0 80 80" fill="none" xmlns="http://www.w3.org/2000/svg"><path d="M77.1323 34.6751C75.779 24.8194 70.566 15.9048 62.64 9.89266C54.714 3.88048 44.7243 1.26313 34.8685 2.6164C25.0127 3.96966 16.0982 9.1827 10.086 17.1087C4.07384 25.0347 1.45649 35.0244 2.80976 44.8801C3.92036 53.0367 7.66663 60.6066 13.4779 66.4369C19.2892 72.2671 26.8469 76.038 34.9998 77.1751C36.671 77.3923 38.3545 77.5008 40.0398 77.5001C46.8387 77.5125 53.5104 75.6575 59.3273 72.1376C59.6254 71.9773 59.8879 71.758 60.0988 71.4931C60.3097 71.2282 60.4646 70.9233 60.5541 70.5967C60.6435 70.2702 60.6658 69.9289 60.6194 69.5935C60.573 69.2581 60.459 68.9357 60.2843 68.6457C60.1095 68.3557 59.8777 68.1042 59.6028 67.9065C59.328 67.7088 59.0158 67.569 58.6853 67.4955C58.3548 67.422 58.0128 67.4165 57.6801 67.4792C57.3474 67.5419 57.0309 67.6715 56.7498 67.8601C50.1597 71.8216 42.379 73.3197 34.7891 72.0883C27.1992 70.857 20.2912 66.9759 15.2916 61.1341C10.292 55.2924 7.52416 47.8679 7.4796 40.1789C7.43504 32.4899 10.1166 25.0339 15.0482 19.1346C19.9798 13.2353 26.8424 9.27441 34.4175 7.95517C41.9926 6.63593 49.7901 8.0437 56.4256 11.9285C63.0612 15.8134 68.1054 21.9239 70.6628 29.1753C73.2202 36.4267 73.1252 44.3497 70.3948 51.5376C69.9489 52.7117 69.1059 53.6924 68.0121 54.3095C66.9183 54.9265 65.6429 55.1409 64.4075 54.9154C63.1721 54.6899 62.0547 54.0387 61.2495 53.075C60.4442 52.1113 60.0021 50.896 59.9998 49.6401V22.5001C59.9998 21.8371 59.7364 21.2012 59.2675 20.7324C58.7987 20.2635 58.1628 20.0001 57.4998 20.0001C56.8367 20.0001 56.2008 20.2635 55.732 20.7324C55.2631 21.2012 54.9998 21.8371 54.9998 22.5001V26.8151C52.2943 23.7365 48.7084 21.5633 44.7272 20.5897C40.746 19.6161 36.5618 19.8892 32.7409 21.3719C28.92 22.8546 25.6469 25.4754 23.3645 28.8795C21.0821 32.2837 19.9007 36.3069 19.98 40.4046C20.0594 44.5023 21.3958 48.4767 23.8083 51.7899C26.2208 55.1032 29.593 57.5952 33.4684 58.9288C37.3439 60.2624 41.5355 60.3732 45.476 59.2462C49.4165 58.1192 52.9156 55.8088 55.4998 52.6276C56.1199 54.6992 57.3741 56.5241 59.0858 57.8456C60.7974 59.167 62.8804 59.9184 65.0415 59.9941C67.2025 60.0697 69.3329 59.4657 71.1328 58.2671C72.9326 57.0686 74.3113 55.3358 75.0748 53.3126C77.3066 47.3695 78.014 40.962 77.1323 34.6751V34.6751ZM39.9998 55.0001C37.033 55.0001 34.1329 54.1204 31.6662 52.4722C29.1995 50.824 27.2769 48.4813 26.1416 45.7404C25.0063 42.9995 24.7092 39.9835 25.288 37.0738C25.8668 34.1641 27.2954 31.4913 29.3932 29.3935C31.4909 27.2958 34.1637 25.8671 37.0734 25.2884C39.9831 24.7096 42.9991 25.0066 45.74 26.142C48.4809 27.2773 50.8236 29.1999 52.4718 31.6666C54.12 34.1333 54.9998 37.0334 54.9998 40.0001C54.9958 43.9772 53.4142 47.7902 50.602 50.6024C47.7898 53.4145 43.9768 54.9962 39.9998 55.0001Z" fill="url(#paint0_linear_763_10477)"></path><defs><linearGradient id="paint0_linear_763_10477" x1="2.46094" y1="2.26758" x2="85.9705" y2="13.2818" gradientUnits="userSpaceOnUse"><stop stop-color="#753BB3"></stop><stop offset="1" stop-color="#38ACF5"></stop></linearGradient></defs></svg>