<svg viewBox="0 0 80 80" fill="none" xmlns="http://www.w3.org/2000/svg"><path d="M39.9987 75.7329C39.6702 75.7344 39.3448 75.6703 39.0414 75.5444C38.738 75.4185 38.4629 75.2332 38.232 74.9995L19.032 55.7995C14.88 51.6518 12.0515 46.3658 10.9043 40.6101C9.75715 34.8545 10.3429 28.888 12.5874 23.4653C14.8319 18.0427 18.6343 13.4076 23.5136 10.1464C28.3929 6.88522 34.1299 5.14453 39.9987 5.14453C45.8675 5.14453 51.6045 6.88522 56.4838 10.1464C61.3631 13.4076 65.1656 18.0427 67.4101 23.4653C69.6546 28.888 70.2403 34.8545 69.0931 40.6101C67.9459 46.3658 65.1174 51.6518 60.9654 55.7995L41.7654 74.9995C41.5346 75.2332 41.2594 75.4185 40.956 75.5444C40.6526 75.6703 40.3272 75.7344 39.9987 75.7329ZM39.9987 10.1662C35.1226 10.1696 30.3569 11.6181 26.3037 14.3288C22.2504 17.0394 19.0915 20.8906 17.226 25.3957C15.3604 29.9008 14.872 34.8578 15.8223 39.6403C16.7727 44.4229 19.1192 48.8166 22.5654 52.2662L39.9987 69.6995L57.432 52.2662C60.8783 48.8166 63.2248 44.4229 64.1751 39.6403C65.1254 34.8578 64.637 29.9008 62.7714 25.3957C60.9059 20.8906 57.747 17.0394 53.6937 14.3288C49.6405 11.6181 44.8748 10.1696 39.9987 10.1662Z" fill="url(#paint0_linear_763_10490)"></path><path d="M39.999 45.8328C37.5268 45.8328 35.11 45.0997 33.0544 43.7262C30.9988 42.3527 29.3966 40.4005 28.4505 38.1164C27.5044 35.8323 27.2569 33.319 27.7392 30.8942C28.2215 28.4695 29.412 26.2422 31.1602 24.494C32.9083 22.7459 35.1356 21.5553 37.5604 21.073C39.9852 20.5907 42.4985 20.8383 44.7826 21.7844C47.0666 22.7304 49.0189 24.3326 50.3924 26.3882C51.7659 28.4438 52.499 30.8606 52.499 33.3328C52.499 36.6481 51.1821 39.8275 48.8379 42.1717C46.4937 44.5159 43.3142 45.8328 39.999 45.8328ZM39.999 25.8328C38.5157 25.8328 37.0656 26.2727 35.8322 27.0968C34.5989 27.9209 33.6376 29.0923 33.0699 30.4627C32.5023 31.8332 32.3537 33.3412 32.6431 34.796C32.9325 36.2509 33.6468 37.5873 34.6957 38.6361C35.7446 39.685 37.081 40.3993 38.5358 40.6887C39.9907 40.9781 41.4987 40.8296 42.8691 40.2619C44.2396 39.6943 45.4109 38.733 46.235 37.4996C47.0592 36.2663 47.499 34.8162 47.499 33.3328C47.499 31.3437 46.7089 29.4361 45.3023 28.0295C43.8958 26.623 41.9881 25.8328 39.999 25.8328Z" fill="url(#paint1_linear_763_10490)"></path><defs><linearGradient id="paint0_linear_763_10490" x1="10.332" y1="5.14453" x2="76.6913" y2="12.5202" gradientUnits="userSpaceOnUse"><stop stop-color="#753BB3"></stop><stop offset="1" stop-color="#38ACF5"></stop></linearGradient><linearGradient id="paint1_linear_763_10490" x1="10.332" y1="5.14453" x2="76.6913" y2="12.5202" gradientUnits="userSpaceOnUse"><stop stop-color="#753BB3"></stop><stop offset="1" stop-color="#38ACF5"></stop></linearGradient></defs></svg>