<svg viewBox="0 0 81 80" fill="none" xmlns="http://www.w3.org/2000/svg"><g clip-path="url(#clip0_763_10482)"><path d="M63.7237 49.5571C62.0859 47.8518 60.1104 46.94 58.0167 46.94C55.9399 46.94 53.9475 47.8349 52.2422 49.5402L46.9067 54.8589C46.4677 54.6225 46.0287 54.403 45.6066 54.1835C44.9987 53.8796 44.4246 53.5925 43.935 53.2886C38.9372 50.1143 34.3952 45.9776 30.039 40.6252C27.9284 37.9574 26.5101 35.7118 25.4802 33.4324C26.8647 32.166 28.1479 30.849 29.3974 29.5827C29.8702 29.1099 30.3429 28.6203 30.8157 28.1475C34.3614 24.6018 34.3614 20.0092 30.8157 16.4634L26.2062 11.8539C25.6828 11.3305 25.1425 10.7902 24.6359 10.2499C23.6229 9.20306 22.5591 8.12245 21.4616 7.10938C19.8238 5.48846 17.8652 4.62735 15.8053 4.62735C13.7454 4.62735 11.753 5.48846 10.0646 7.10938C10.0477 7.12626 10.0477 7.12626 10.0308 7.14315L4.29006 12.9345C2.12884 15.0958 0.896271 17.7298 0.626118 20.7859C0.220889 25.7161 1.67296 30.3087 2.78734 33.3142C5.52264 40.6927 9.6087 47.531 15.704 54.8589C23.0995 63.6895 31.9976 70.6628 42.1621 75.5762C46.0456 77.4166 51.2291 79.5947 57.0205 79.9662C57.3751 79.9831 57.7465 80 58.0842 80C61.9846 80 65.2602 78.5985 67.8266 75.8126C67.8435 75.7788 67.8773 75.7619 67.8942 75.7282C68.7722 74.6645 69.7852 73.702 70.849 72.6721C71.575 71.9798 72.3179 71.2538 73.0439 70.494C74.7155 68.7549 75.5935 66.7287 75.5935 64.6519C75.5935 62.5582 74.6986 60.549 72.9933 58.8605L63.7237 49.5571ZM69.7683 67.3366C69.7515 67.3366 69.7515 67.3534 69.7683 67.3366C69.1098 68.0457 68.4345 68.6873 67.7084 69.3965C66.6109 70.4433 65.4966 71.5408 64.4497 72.7734C62.7444 74.5969 60.7351 75.458 58.1011 75.458C57.8479 75.458 57.5777 75.458 57.3244 75.4411C52.3097 75.1203 47.6496 73.1617 44.1545 71.4902C34.5978 66.8638 26.2062 60.2957 19.2329 51.9716C13.4753 45.0321 9.62558 38.6159 7.07602 31.727C5.50575 27.5228 4.93168 24.2472 5.18495 21.1573C5.35379 19.1818 6.1136 17.544 7.51501 16.1426L13.2726 10.385C14.1 9.60829 14.978 9.18618 15.8391 9.18618C16.9028 9.18618 17.7639 9.82779 18.3042 10.3681C18.3211 10.385 18.338 10.4019 18.3549 10.4187C19.3848 11.3812 20.3642 12.3774 21.3941 13.4411C21.9175 13.9814 22.4578 14.5217 22.9981 15.0789L27.6076 19.6884C29.3974 21.4781 29.3974 23.1328 27.6076 24.9226C27.118 25.4122 26.6452 25.9019 26.1556 26.3746C24.7373 27.8267 23.3865 29.1775 21.9175 30.4945C21.8838 30.5282 21.85 30.5451 21.8331 30.5789C20.381 32.031 20.6512 33.4493 20.9551 34.4117C20.972 34.4623 20.9889 34.513 21.0058 34.5636C22.2046 37.4678 23.893 40.2031 26.4595 43.4618L26.4764 43.4787C31.1365 49.2194 36.0499 53.6938 41.4698 57.1214C42.1621 57.5604 42.8713 57.915 43.5466 58.2527C44.1545 58.5566 44.7286 58.8436 45.2182 59.1476C45.2857 59.1813 45.3533 59.232 45.4208 59.2657C45.9949 59.5528 46.5352 59.6879 47.0924 59.6879C48.4938 59.6879 49.3718 58.8099 49.6588 58.5228L55.4334 52.7483C56.0074 52.1742 56.9192 51.482 57.9829 51.482C59.0298 51.482 59.8909 52.1405 60.4143 52.7145C60.4312 52.7314 60.4312 52.7314 60.4481 52.7483L69.7515 62.0517C71.4906 63.7739 71.4906 65.5468 69.7683 67.3366Z" fill="url(#paint0_linear_763_10482)"></path><path d="M43.7327 19.0301C48.1564 19.773 52.175 21.8667 55.383 25.0748C58.5911 28.2828 60.6679 32.3014 61.4277 36.7251C61.6134 37.8395 62.5759 38.6162 63.6733 38.6162C63.8084 38.6162 63.9266 38.5993 64.0617 38.5824C65.3111 38.3798 66.1385 37.1979 65.9359 35.9484C65.0241 30.596 62.4914 25.7164 58.6249 21.8498C54.7583 17.9833 49.8787 15.4506 44.5263 14.5388C43.2768 14.3362 42.1118 15.1635 41.8923 16.3961C41.6728 17.6287 42.4832 18.8275 43.7327 19.0301Z" fill="url(#paint1_linear_763_10482)"></path><path d="M80.4055 35.2897C78.9027 26.476 74.7491 18.4558 68.3668 12.0734C61.9844 5.69107 53.9643 1.53748 45.1505 0.0347509C43.918 -0.184748 42.7529 0.659479 42.5334 1.89205C42.3308 3.14151 43.1582 4.30654 44.4076 4.52604C52.2758 5.85992 59.4517 9.5914 65.1587 15.2815C70.8657 20.9885 74.5803 28.1644 75.9142 36.0326C76.0999 37.147 77.0623 37.9237 78.1598 37.9237C78.2949 37.9237 78.4131 37.9068 78.5482 37.8899C79.7807 37.7042 80.625 36.5223 80.4055 35.2897Z" fill="url(#paint2_linear_763_10482)"></path></g><defs><linearGradient id="paint0_linear_763_10482" x1="0.556641" y1="0" x2="89.4535" y2="11.7379" gradientUnits="userSpaceOnUse"><stop stop-color="#753BB3"></stop><stop offset="1" stop-color="#38ACF5"></stop></linearGradient><linearGradient id="paint1_linear_763_10482" x1="0.556641" y1="0" x2="89.4535" y2="11.7379" gradientUnits="userSpaceOnUse"><stop stop-color="#753BB3"></stop><stop offset="1" stop-color="#38ACF5"></stop></linearGradient><linearGradient id="paint2_linear_763_10482" x1="0.556641" y1="0" x2="89.4535" y2="11.7379" gradientUnits="userSpaceOnUse"><stop stop-color="#753BB3"></stop><stop offset="1" stop-color="#38ACF5"></stop></linearGradient><clipPath id="clip0_763_10482"><rect width="80" height="80" fill="white" transform="translate(0.5)"></rect></clipPath></defs></svg>